<mxfile host="app.diagrams.net" modified="2022-09-15T16:27:42.839Z" agent="5.0 (X11)" etag="TCjhu0eBxl2kvq_aoW0I" version="20.3.0" type="github">
  <diagram id="6UpNDwpI1nD_NAY1Nvfu" name="Page-1">
    <mxGraphModel dx="1422" dy="793" grid="1" gridSize="10" guides="1" tooltips="1" connect="1" arrows="1" fold="1" page="1" pageScale="1" pageWidth="850" pageHeight="1100" math="0" shadow="0">
      <root>
        <mxCell id="0" />
        <mxCell id="1" parent="0" />
        <mxCell id="mOZohG3tkldl4-SXVd8Q-14" value="" style="rounded=0;whiteSpace=wrap;html=1;fillStyle=auto;fontSize=14;" parent="1" vertex="1">
          <mxGeometry x="600" y="140" width="200" height="500" as="geometry" />
        </mxCell>
        <mxCell id="mOZohG3tkldl4-SXVd8Q-11" value="" style="rounded=0;whiteSpace=wrap;html=1;fontSize=14;fillStyle=auto;" parent="1" vertex="1">
          <mxGeometry x="40" y="140" width="200" height="500" as="geometry" />
        </mxCell>
        <mxCell id="mOZohG3tkldl4-SXVd8Q-1" value="Point Cloud Data &lt;br&gt;&lt;div&gt;[.pcd file OR&lt;/div&gt;&lt;div&gt;&amp;nbsp;from LiDAR]&lt;/div&gt;" style="ellipse;shape=cloud;whiteSpace=wrap;html=1;" parent="1" vertex="1">
          <mxGeometry x="60" y="20" width="160" height="100" as="geometry" />
        </mxCell>
        <mxCell id="mOZohG3tkldl4-SXVd8Q-2" value="&lt;b&gt;&lt;font style=&quot;font-size: 14px;&quot;&gt;Point Cloud Data Compression and Encryption Image of Concept&lt;/font&gt;&lt;/b&gt;" style="text;html=1;strokeColor=none;fillColor=none;align=center;verticalAlign=middle;whiteSpace=wrap;rounded=0;" parent="1" vertex="1">
          <mxGeometry width="520" height="20" as="geometry" />
        </mxCell>
        <mxCell id="mOZohG3tkldl4-SXVd8Q-3" value="Compression of Point Cloud into an Octree [Octree Encoding]" style="shape=process;whiteSpace=wrap;html=1;backgroundOutline=1;fontSize=14;" parent="1" vertex="1">
          <mxGeometry x="60" y="200" width="160" height="80" as="geometry" />
        </mxCell>
        <mxCell id="mOZohG3tkldl4-SXVd8Q-4" value="" style="shape=flexArrow;endArrow=classic;html=1;rounded=0;fontSize=14;startArrow=none;" parent="1" source="mOZohG3tkldl4-SXVd8Q-1" edge="1">
          <mxGeometry width="50" height="50" relative="1" as="geometry">
            <mxPoint x="139.67000000000002" y="120" as="sourcePoint" />
            <mxPoint x="139.67000000000002" y="200" as="targetPoint" />
          </mxGeometry>
        </mxCell>
        <mxCell id="mOZohG3tkldl4-SXVd8Q-5" value="" style="shape=flexArrow;endArrow=classic;html=1;rounded=0;fontSize=14;" parent="1" edge="1">
          <mxGeometry width="50" height="50" relative="1" as="geometry">
            <mxPoint x="139.67000000000002" y="280" as="sourcePoint" />
            <mxPoint x="140" y="360" as="targetPoint" />
          </mxGeometry>
        </mxCell>
        <mxCell id="mOZohG3tkldl4-SXVd8Q-8" style="edgeStyle=orthogonalEdgeStyle;rounded=0;orthogonalLoop=1;jettySize=auto;html=1;exitX=1;exitY=0.5;exitDx=0;exitDy=0;fontSize=14;dashed=1;dashPattern=1 2;entryX=0;entryY=0.5;entryDx=0;entryDy=0;entryPerimeter=0;" parent="1" source="mOZohG3tkldl4-SXVd8Q-6" target="mOZohG3tkldl4-SXVd8Q-16" edge="1">
          <mxGeometry relative="1" as="geometry">
            <mxPoint x="680" y="399.9699999999999" as="targetPoint" />
            <Array as="points" />
          </mxGeometry>
        </mxCell>
        <mxCell id="mOZohG3tkldl4-SXVd8Q-9" value="TCP transfer over WiFi/Ethernet" style="edgeLabel;html=1;align=center;verticalAlign=middle;resizable=0;points=[];fontSize=14;" parent="mOZohG3tkldl4-SXVd8Q-8" vertex="1" connectable="0">
          <mxGeometry x="0.1727" y="1" relative="1" as="geometry">
            <mxPoint x="-63" y="1" as="offset" />
          </mxGeometry>
        </mxCell>
        <mxCell id="mOZohG3tkldl4-SXVd8Q-6" value="Encrypt Octree data using AES-256" style="shape=process;whiteSpace=wrap;html=1;backgroundOutline=1;fontSize=14;" parent="1" vertex="1">
          <mxGeometry x="60" y="520" width="160" height="80" as="geometry" />
        </mxCell>
        <mxCell id="mOZohG3tkldl4-SXVd8Q-16" value="LiDAR&lt;br&gt;Database" style="shape=cylinder3;whiteSpace=wrap;html=1;boundedLbl=1;backgroundOutline=1;size=15;fillStyle=auto;fontSize=14;" parent="1" vertex="1">
          <mxGeometry x="670" y="519.9999999999999" width="60" height="80" as="geometry" />
        </mxCell>
        <mxCell id="mOZohG3tkldl4-SXVd8Q-17" value="" style="shape=flexArrow;endArrow=classic;html=1;rounded=0;fontSize=14;entryX=0.5;entryY=1;entryDx=0;entryDy=0;" parent="1" edge="1" target="mOZohG3tkldl4-SXVd8Q-18">
          <mxGeometry width="50" height="50" relative="1" as="geometry">
            <mxPoint x="699.6700000000001" y="520" as="sourcePoint" />
            <mxPoint x="700" y="480" as="targetPoint" />
          </mxGeometry>
        </mxCell>
        <mxCell id="mOZohG3tkldl4-SXVd8Q-18" value="Decrypt" style="shape=process;whiteSpace=wrap;html=1;backgroundOutline=1;fillStyle=auto;fontSize=14;" parent="1" vertex="1">
          <mxGeometry x="665" y="430" width="70" height="20" as="geometry" />
        </mxCell>
        <mxCell id="mOZohG3tkldl4-SXVd8Q-19" value="" style="shape=flexArrow;endArrow=classic;html=1;rounded=0;fontSize=14;" parent="1" target="mOZohG3tkldl4-SXVd8Q-20" edge="1">
          <mxGeometry width="50" height="50" relative="1" as="geometry">
            <mxPoint x="699.67" y="300" as="sourcePoint" />
            <mxPoint x="700" y="240" as="targetPoint" />
          </mxGeometry>
        </mxCell>
        <mxCell id="mOZohG3tkldl4-SXVd8Q-20" value="Decode Octree" style="shape=process;whiteSpace=wrap;html=1;backgroundOutline=1;fillStyle=auto;fontSize=14;" parent="1" vertex="1">
          <mxGeometry x="640" y="180" width="120" height="60" as="geometry" />
        </mxCell>
        <mxCell id="mOZohG3tkldl4-SXVd8Q-21" value="" style="shape=flexArrow;endArrow=classic;html=1;rounded=0;fontSize=14;" parent="1" target="mOZohG3tkldl4-SXVd8Q-22" edge="1">
          <mxGeometry width="50" height="50" relative="1" as="geometry">
            <mxPoint x="699.6700000000001" y="180" as="sourcePoint" />
            <mxPoint x="700" y="110" as="targetPoint" />
          </mxGeometry>
        </mxCell>
        <mxCell id="mOZohG3tkldl4-SXVd8Q-22" value="Original Point Cloud Data" style="ellipse;shape=cloud;whiteSpace=wrap;html=1;fillStyle=auto;fontSize=14;" parent="1" vertex="1">
          <mxGeometry x="640" y="20" width="120" height="80" as="geometry" />
        </mxCell>
        <mxCell id="mOZohG3tkldl4-SXVd8Q-24" value="" style="shape=image;verticalLabelPosition=bottom;labelBackgroundColor=default;verticalAlign=top;aspect=fixed;imageAspect=0;image=https://pcl.readthedocs.io/en/latest/_images/octree_bunny.jpg;" parent="1" vertex="1">
          <mxGeometry x="240" y="720.17" width="120" height="117.6" as="geometry" />
        </mxCell>
        <mxCell id="mOZohG3tkldl4-SXVd8Q-25" value="" style="shape=image;verticalLabelPosition=bottom;labelBackgroundColor=default;verticalAlign=top;aspect=fixed;imageAspect=0;image=https://waldyrious.net/learning-holography/img/stanford-bunny-points.png;" parent="1" vertex="1">
          <mxGeometry x="70" y="720.17" width="120" height="120" as="geometry" />
        </mxCell>
        <mxCell id="mOZohG3tkldl4-SXVd8Q-27" value="" style="shape=image;verticalLabelPosition=bottom;labelBackgroundColor=default;verticalAlign=top;aspect=fixed;imageAspect=0;image=https://upload.wikimedia.org/wikipedia/commons/5/50/AES_%28Rijndael%29_Round_Function.png;" parent="1" vertex="1">
          <mxGeometry x="646.5" y="702.65" width="107" height="160.34" as="geometry" />
        </mxCell>
        <mxCell id="mOZohG3tkldl4-SXVd8Q-31" value="" style="endArrow=classic;startArrow=classic;html=1;rounded=0;fontSize=14;entryX=0;entryY=0.595;entryDx=0;entryDy=0;entryPerimeter=0;" parent="1" target="mOZohG3tkldl4-SXVd8Q-24" edge="1">
          <mxGeometry width="50" height="50" relative="1" as="geometry">
            <mxPoint x="190" y="790.17" as="sourcePoint" />
            <mxPoint x="240" y="740.17" as="targetPoint" />
          </mxGeometry>
        </mxCell>
        <mxCell id="mOZohG3tkldl4-SXVd8Q-32" value="" style="endArrow=classic;startArrow=classic;html=1;rounded=0;fontSize=14;entryX=-0.027;entryY=0.566;entryDx=0;entryDy=0;entryPerimeter=0;exitX=1.021;exitY=0.588;exitDx=0;exitDy=0;exitPerimeter=0;" parent="1" target="mOZohG3tkldl4-SXVd8Q-27" edge="1" source="9oeBPMUSF0gewxVIEJe3-6">
          <mxGeometry width="50" height="50" relative="1" as="geometry">
            <mxPoint x="509" y="791.4" as="sourcePoint" />
            <mxPoint x="569" y="791.3720000000001" as="targetPoint" />
          </mxGeometry>
        </mxCell>
        <mxCell id="9oeBPMUSF0gewxVIEJe3-1" value="Compression of Octree using Z-Lib [Binary Encoding]" style="shape=process;whiteSpace=wrap;html=1;backgroundOutline=1;fontSize=14;" vertex="1" parent="1">
          <mxGeometry x="60" y="360" width="160" height="80" as="geometry" />
        </mxCell>
        <mxCell id="9oeBPMUSF0gewxVIEJe3-2" value="" style="shape=flexArrow;endArrow=classic;html=1;rounded=0;fontSize=14;" edge="1" parent="1">
          <mxGeometry width="50" height="50" relative="1" as="geometry">
            <mxPoint x="139.50000000000006" y="440" as="sourcePoint" />
            <mxPoint x="139.82999999999998" y="520" as="targetPoint" />
          </mxGeometry>
        </mxCell>
        <mxCell id="9oeBPMUSF0gewxVIEJe3-3" value="Decode Octree" style="shape=process;whiteSpace=wrap;html=1;backgroundOutline=1;fillStyle=auto;fontSize=14;" vertex="1" parent="1">
          <mxGeometry x="640" y="300" width="120" height="60" as="geometry" />
        </mxCell>
        <mxCell id="9oeBPMUSF0gewxVIEJe3-4" value="" style="shape=flexArrow;endArrow=classic;html=1;rounded=0;" edge="1" parent="1">
          <mxGeometry width="50" height="50" relative="1" as="geometry">
            <mxPoint x="699.5" y="430" as="sourcePoint" />
            <mxPoint x="700" y="360" as="targetPoint" />
          </mxGeometry>
        </mxCell>
        <mxCell id="9oeBPMUSF0gewxVIEJe3-5" value="" style="endArrow=classic;startArrow=classic;html=1;rounded=0;entryX=-0.014;entryY=0.565;entryDx=0;entryDy=0;entryPerimeter=0;" edge="1" parent="1" target="9oeBPMUSF0gewxVIEJe3-6">
          <mxGeometry width="50" height="50" relative="1" as="geometry">
            <mxPoint x="360" y="790" as="sourcePoint" />
            <mxPoint x="410" y="790" as="targetPoint" />
          </mxGeometry>
        </mxCell>
        <mxCell id="9oeBPMUSF0gewxVIEJe3-6" value="" style="shape=image;verticalLabelPosition=bottom;labelBackgroundColor=default;verticalAlign=top;aspect=fixed;imageAspect=0;image=data:image/png,iVBORw0KGgoAAAANSUhEUgAAAMgAAACdCAMAAADGxcfoAAAAjVBMVEX////+/v77+/vw8PD5+fn29vbz8/Pi4uLu7u7b29vo6OiwsLDe3t6goKBqamrr6+tiYmJ2dnZYWFhBQUFLS0vDw8NeXl5nZ2dvb2/Nzc1TU1PQ0NCqqqqEhIRHR0eIiIgyMjKcnJyPj48uLi46Ojq4uLiVlZV+fn4pKSkSEhIcHBwHBwcVFRUiIiIBAQHE76YiAAAgAElEQVR4nO196ZqkOLKsxL5vwb4ECZVA9VLn/R/vurmAgKzqmu6e7/TMd0/yo6MtRQQyFsnczUUJ8bn9V27NQv+Jw23sgGRXAE7b3EngrpFXuLj04QHydxd8nFAydNdttQG1AjCYd2gu+HDnbVKtvndt1XrAZtz6mHcGlARDB9DCdwF7hvHi7FB/8XDfI9pxTNahdanVfaZCGFs1bYDCzQcpzDRatwytxVvPcEpLhl9DIfQtmjYFvxG003pKqxjwnaAXEUwc9PRBp8hL0qlOdMC3hmCZTlVNO2vhN4JuOUzJYAH+TiehS7Z1h2/03aYkuBnoLfrWlANBbaehFY/favqFRyOsKpRa8fwlBblOmFkvteX5CxFx311htaE0wvffiEjXdsLJJjprb7/19INJI+JoEkb/9j/U86W1RVAWaP0d8OkJ+9kIff7yraBr9tCF/U5w/Pprg50dPrYzfv2Fej6nuigSl3b+9hvBsbYYOvM3oinnyhRFG9Cp+vXhCm1NDFG8e8f1KOeyxu87Qk6RcJM1ISLLu0m/umldsrajFH5Gp3AbtCaf3olIH9G309Rs2ulBXQ0TT2hDrRXZSlCb6fetbRRFObUE14zuk3QVYRl+KQjS5dfKUIRt+IWIjHRGZR5qfTbRBZLlqgmvXWRfrm90KpNZCrvyRZ+sOZ3oaKTrXS1iqEciYqUzXdG22IlYuh4Rkf5Jt8L0kJZu1USkL+kCrplpOUZJRMKULu9Q6WYcP4jImoJX6ViO9yQic2UJOZS6btkEjYEusFlXgmBGcN4AU+FYAYgM9HNaMkhdd3Fr1dRz0Y6GbnUEzRb3Yj5pjtkQET1TUMRGkRcirgHpTvA0n4g4Nd0NcR6ez4h1ElkfUh2UToEigrN3IUJfZCIbE6H/3IjQ6boSIXglQs81E5mZCHX/QgQQRKy2555TNy5EVvrujYgQ/z4R57+dCJ5BOSUHkeWBZyQ1diI+ejls1k4kxDOy1eZOJExi6mBkKCL7MzLsRLS5xDMyH0TmGkTQVSYyYBCie0kR0TI8I7kvFBGLn5Gk34no/Iwk/k5Ex4/G7XIjQiMHPVv1ehBx31xhJKG2E+lo1DIyHI6JNBmdrQQ7M5EioUEsQldBRPgtDVPJshMR/jOmvi07ETpjlvDei4MIhhEbwzIToWffolG124nIgUetbieijXSyGp4UQITOmCaa9+BFpKKBRK8rf87xFTMiImYS7VDLMI+UtT+2gPF7KIkEwYynQoxacXRA+zFhHNyWrcSoaLcEg5ZghknO/UodtvNhSTOHIfU8yEc/rbBzh0GsaVe/wo0rmi/0g0U7+xVua1E8C7AhiBtB+HRm6W+rn9TaScToce2CsUoxhxP0MS0CYh8tXHD2DmjN2MkdqhQnVehrIxTEp3DWAhPuVm0uw4mgRnCAHBDx4KpWBb0hAEyrgXe2B5q7tSWtZu8C6x0GK+1sEFwZdnN8hZ/b5/a5/YnNDacF44KwCusK9Ua/Q4jQZpoKHib0gmG4Q2sx8eASNABj/PW1s9fRX41iCjuG9gk5MLAbgiag6g+GDfPSCrhMIQ8QIsBfdX/qA4au+iv/b1Jv2YopfH3QwOBW9VYCGisG7K6KtnLWAKHiiyzdMPnSGJ7b1HFAn37KmN+8A9LOVtrSLxRlmmaAegpN0JdpXWLCcOqaBGqfUSvDKNJJ02db2qLPXl6JC7SzeocZKNglTQbaWG5RgqHObudz9F1rXSxQyuOvX2wIZ134SSDi8VfiJaE+IMvjAdAcU01MuSHi7deHTWJkk2IqTeFtvxIRLaWpc6UpLKh/oX1EQgeBLCdYWsIhPWik9H23/oV4xREgZuIK0CP1YWwpRXXtbzSrxTSbG/Rzsml/o1nNorneIDFDEEFFgCiAggpZZL+dRFg42+1C4n57Bko4B9Ui5ySlK7IL50IMyUZEvKoXHJuk2UZEdMiD7t02tnKgsEB/EGweXpzWEam0GLAoAydNE+pql9EJ7ivPqtKS4irEMKQBHKOtE4KIcISfW3a5ZZE6BkHpJluWYtIPWP65yYAwDzEMBRWGm43v40Fkl2mhZlt+HlC4hBCPhJht9USEZRqERmD1RMTGvWCT0Agcn4g47w0LDc12fCJiv3csNEzbmolIANi8U6sJuVlE6FvrysDcEhU9kaJzpWsNgPRzFATZuu3URAThklzePd3WIZiKd3og/TdLt00KAERId40YK90KjPw7IgJnAER6EIHAvBBheCUCsUNE3pgIJvMrEWp9EWF4JUIwZSIBeo6p/kKE/mZdiezKr0CY539BfMxEEA6NiJ7FP0HE/WeJaC0paiWcQcQqSdPaZb8T0aFplXAGEQ+aNnjrdiL6cwGRbicSvxcg4u5EWNM2LDxBhDWtn9gnEcCnvRNpctB8xDuRjigREWsn0tBQgidoJ+KXxGFkLfkiQg+NSQdpdiIy3QhWzU5E20hcNixsQcTaZtzYzk7ErCfkFvSdCEXi+0GYiEbjiuhrbydCAwoNgpG1EwkoEufsgSJC4wvBUtuJIBKXa3QEFThFckbkwkQ66oqWICK7EinyvqlT7tsTVxsQDxMTUbCCcO5xksJ8KTCSQ0fbNLwTzDAAMhEZtgRXzIgz5pGVIQ6Ep1umSeHnIb6bUphmbAQRoQuJUNMcymLh+8KKaB4xh6RYnpDdHFQYadL4DDUc3Wq3Jnxy0uH5ImL2ZbtxcFIM3g45YVaMBC2Cg4KbB9WeZSNnyIo0VnAGaRLjCIMJrtzqj0THmbN25fxZjxnWHtosZJEQztYOcYZkP6N1a8sQ58CcENkC9oDGFCqYMdRmiutEl7bJwgyG/hWOfG6f2+f2f2ZjH8Hp54mTACog0AGV5Id8dk5YBPK6c4GPuJ9DhpKhHc4h5wS0ZofsGFAI4l2htjCcDugj09JNs88jnQEou3WHJr77gk6h79B68QieNAWZczmmCDlE0GLkHpMT0shNo/5YwzggFQhbAZADguaNRkeSfQQxhLPL4KXVGMEpIOEBWEcjQg6abDDXx1E9VjVDyJc4qccE05j02VZI0rHE6Cz7XyF4KoIjgqWeZQO1cpLSnDlYKtF6RFayyWErBDTBWElPGj9HBADJTzIMUNkKHYn2Xmr+bis0IkY6FFDZCl4V0jndbYVAuKTKDP/tF7YVbLYVrHW3FRz16+tuK8Q0UzOErXBER9a62wonZFshUdERxT9sK1Ao9LIVgnLIOGUaCznVdErG8mYrzGwrtLut8FxvtkI+P3qOMoQ2pFrTzmwrlAaLGZr0891WMEjMhNnEtkK12wr5erMVWkCJaNQjMdNn85dOmNUo2UfoyxGnoh52W6Ea2FYYr7aC7jkqiS3ZVtA9/WYreOY1iW15F1shcXTPviaxHeeWxI6d4JrE9vSbrRDHN1shdi62Qqh51s1W8KxXEruchG3+H8jGKyLvdyLtnUjygYjz30hE2Qrl3VaoD1uh/2ArYEzaauvHtsKYaPSMbOKwFZKf2goDfa1df2YrlC9b4YyOlK2w/oGtYKSnrYD4SKuml61AEQDSFIet4KqDvGwFvT5thb71aBDzdyLSfzr74dhW8J8m/cjLVigt4SFNoWLLgW2FZicit/SIjthWGNhW6HYixlhpbHicRNhWiKJiep62glXWO2RbwWrTAnbkbis4JUGVheKZIjmgDehmQzG20P42nl03H4uhxSDJtkLwmIutZZcBo1bwJJictkKRh0XE0RHbCks+FXV92goMo9NWWJ60c/TS8SYkv3S3suK8oBH2DLOIobYiA9cd0BoKDggIsq0wskeTEm82DgBlUWcpZw3jGbYCQ/YRUvc7KIsoS5WtkMI48KtSxT9BajPMFHRH2skkODJsOHYC/LQVPrfP7c9ugd8XGAiE2ZlXaLnWd1C6fd8oH6GBj+D6OzRhJ8jO75VxoONDdv0OY5ddht5XkYB3Qu6Ah52ME9oYJ4zLzjtUPoKNv1pFz4VG1D37tBXsqqqzCVN4iHSQWycEMRFOUPFulNQ8f2hTyfU4Vd1ihtBWZStEdctZmvXdUzBDdsPclK0QRRlarQ0q3i+jim0FK6XxVfoZwYYhbAU/qyPOn8UZVKXf1hG71B4qY9BalRjqPOS1tDmrkwhMvPJiK0Qx+wj6+g22wnzA+RvbCiRL4Js7DM2x1ki4GPAgYCtAuiLJRpBtBVIaM436dsq2QjVqciR5aae/06wHuUFzrQbItsJE8z110q6VrQC4YRKCreAk2Jlm3K5UtkJP0xudz65UtgLJlZxijKb85aOtUJC4rylweNkKZc22AgnnALZCWRORWNkKgUjb9GorDFlKV8RiW+HpOVtVnbZCEuhplMFWaHdbgS4ifATYCn2rG1lVJnurn5s2HTZSVVZ0AmWQpO1evkDfNdxke7KtEO+2wnCzFSQL5yC+2Qqu80pilwyvSWzXu9kKBDmJ3ShbwdWvtoLh6pzErlQSW+usm63QOTdbwY1vtgLBq63gWjdbwTW/z8bL/5ZsvPn/ma0Q/z1b4Xm3FbLDVnCiVezlOWwrlGwrNDsRHcmEv2YrlIH4Y1theXg7keantkKf/MhWSEeTBoOLrWDcbAUaZrrTVuDCogIuxstWKE5bwcjocVu4fAZEDBpXhP/HtgLBtTxthWTBCH/YCjZshak6ggrvvbnaCg0dW1bzB1thyX035eQN2wp+7ncY2HdbgWFi7US0MC+6ZDttBcByPG2FqS2abD5thbltdoinW6urrsDlV7aCmQKetgINAF2R48orW2Gj1qd/EDHouwtDZSvkg9srW+FCxAzbPOVJtEhxZSdANBRwF6zwhDi3zpznQ/yCI0HcqiTGHYj4Nh+5tcfZi4d8hyFSU8GWtxNn16bRgkzP25VtBdVKcGJbYUaE5hJk08FYEei69Q61kYYl2UR55nNlQvppK3xun9v/xY19BIQYXObUh6hrspap3yW/ChP0DvFIF4bIQehna6OKPI8ypxDhiedPbBFQvKJaVcRRhFy55PVHa8EfFIBA+aP1dXgkKZy9VahWjKxnK/dG3MqcIFAi/ubEZU5RlGaroc2oJOKUjkrcH2VOdUqaxhjLrYrQye6NE33GrOKRNKXwJN6SLUm5UvTJrbcyJ6dGK7qxvPMJ1GtV5pSmWUPzZKSKroT/jRMxHlLqaK1pWnarKuUIROPeQD294hEUFtUCU4Qqc6IJgeIRm+SG3vpyLyyiKeLbq8xJc2ni9VDAvzxgK6DqSZU5UXhSmwvNpLAVtOUdtoIIao5HVJmTUZAO4bUQ05dfuUL1Uua00dcd9hHM8CtsBdllRzyCMqeVJlYuuqLecMHqpcxJBOXW1jjjZXopc2KZNg6aWw45XRGSEemrzMn2UahLYqbJh/cei03K7YxHHvbKtsIqinaAGI3pQlzKnKYE83MvwueMjJyRXcuc9OSwFdoBCbpbmVMVn7ZCuYHIrcxJ6HaMlKlm65d4ZPJ3W0G3Ldxa8lbm1Oy2gq7bnCPV7PiifguVxI6E58FWEEZwLXPqxt1W8GxOmUqKVk71+3BR9sG2QoyUqbiXOQWHrRBYSJmKW5mT2HO/4i7j/butIO4y/oOtcJfxxT0bj+1GRGXjj9zvTcY/uns2Xtxk/E7kzMZj+5NE2p8TcX5MZPszRLQfEXn/ORH3LxA5ypyWJ9sKH4js8Uj3wVb4EI+wrZBuH4gc8cicgsj64YqoMqenp2wFDCBXIns8Yitbof8zRI4yJ5ceLy06bYWdiL5xPKIXNPiZ1WkrHPEIypyWTO/bWHiR/4HIEY/4uYHqxw9EuMyJ4hEUXXWnrXAQ2cucLBRdqejox0SqSBG5lDlZWdqFD/wg2wriXuYUZ0MzsQvJtsK9zIkG57mbX7aCeJU5LXko3cfajTm7DF8UEVXmlDR0aFV0VZ+2wqXMCVVP6JyKjvzdFnleiZgs+fdCJjPMUOYku3qvJFKFRXu0oq9tizKnJtpbnY3jG1kgsYG6ptmh+SNpo0a5DMpOupY5obVmW8GOVJHBUeaUhYaqsuI/uzzh0rSARyJAmZMprD47SrJSZSdsn/HI5/a5/enNKxb4CWaz7LI6VtrbDCBCbWo1rq1uzM++6SKTEyy8Btl6tapn0MJfpUut0PzFwusgaHe1QtixMax3y4IDUWujJPmuzNlHQKutOtdwlkFz1Xc9+AhHbzzVuZ1HXSY0Xhh9m5SchIox4GEwgY8Q1Bm1aiSbk4wHiiDnQYyGWgxtZZm0hTTPVleNxsYIcdMkZVIWUh/bJBtwUgpVN2IOsBWWjL7ckbrMknZm31ZNK06CNbBLliQkgu0Uh0dfl5y/G0eQahOOZ++dOwKSiZRsn9hYYOdhCYWbQDgLa/oKW2EtY/jmUPXek1R90aI6CNU6bCukhpgTraMJ3yVBK5vn/2Da9YbfYSvUg6ENm1U8O9E9OqH579946tlgKzjRKrGYtqDJq4DH77//wmvGE7YVqonm6Vms6FwZoNDo0Pw0qyGHSdM/8aGQ46HiLyETZStw2nhN6YfqPOXIJaGwwtxthSV3kJPUmmeKZeCClD9SppkPWyF+VQfViLOcLSkzVAWwreBOraRgIqTzscFnt+ooZ1uhYFthpQhHo071eYrVfHZSIcxD+QIJMxPnP4gW+t/6wdVcNdsKORTSGGPRpper8FaYu63gPzUhp6eMOw+iQOu8q63QQ1cNkRU33oMLb+2LrdAh3oHQ8FwXAYjVeVdbYcayxjSlqNRF+ttonIutEKR7dVDgcvobh39l490SKrGdhBug8oFanYutEHAtCq/LEa9s/FEdJPcCmFs2PuzvRTXilo1vjqIaqUo4xC0bX9yLarBds/HprahGyJut0B1FNZJLOMQ9G+/eimruRM7qoJNI/xeIiJ8Qqf8ckbut0N2rg35KxFC2Qo9yIInb+UZktxV8H9mDIbU+EFG2gjslNAoNqKC/EsEAIZon0cStNXxHRNkKG1TfWR0kTlvBBhEbQYXHEvpKZLcV7HTCreXvoxbbClmDKhuubrsR0VJlKzQPutTVWR20E7EilAY9rKVCXR5E8pWIshUiu89J7ZX+ByIubIWpNPrExPINeSdiU7dlWGkwObqq+ECEbYVotoZaqmGBNxqg7S2KnXKwF17FbEYvIqJHa2npz9nmGlG1MH8nok1t59Iv2yW18oGuRMSYdW45at0j9EIEgDciZhq5TbvSoOfba6syS4oIbAUrrYOGVL2fL/aWxBcisBXQG+orqlZtNsLVQ7Lmz6iD1fvIeUGAOSpVv6A8R1/zR+2STC8fLbfqyaJUPUqT4u35pIlQtUJPq3hK0F1sYMJ4PgeKt/z2UXLtkN2qoXJFBZtbP3KaCLX+aHVVqsocR4iC+pmT9qfOPSLW/F3NZ17b6EmQRULHM4/OHZvUNG3/UJOkPD7kj1qPnbT9u/KHrfJft2ofWuUftYrvWuXH1s/tc/vf3XQIVyPoXKWjLYwS2gl15wY9fGjuCfXbdxla1KrGEgfQJMhiW8bmFQrvDm1A3e1s9fh9gLyz3u1Qi40rVJuFaVfz27bdQEFHpau8QGTUeoLsgnqZr6AyRTkHpVrRZ5u11pq3yue0qxvsUBxkzoDoRge9B5izz9lBuTlb2/JCZZoTOwx8+QGROlaQTWUUhCh48vBSZOM9kio23pVhp3h3EEoIAmSfgvR3GrlR0Oo+oHXLX2gewY5dzhDZeJemu46VcIYif4QdBTrZZcjG0+ROvaLJtcgh49HB4g0j+hPKvCGRv6Biv3hAxvelLcLE5jcadagoDmRYMsTOYWbLkKSv2b/RVygm8mT4OF7n5FXZo95lGskiOyofnKSEJpllECXvI4QzZPysdXn1FVUBNInIetC6NvnS4/TQobZNdln5JcR8TUP8FtJJTN4BW40mWZrc2ugr5usS5RY+yZMKun2tDdIAvlxyhtGscWJ2aZNvFKREJMKCCLCk62XWGwKWQqxtRkRM3DqnjKdwMaBbSx4y3itsSBQ/Q+63NLzC45JyCGeS8d4SqCJ/h7Nu9sK6fZfxVlAAakOEF1fVwi1cLilHKjjdRNdAxmsjXWCZjLIreCpPZyXju6JRRf4qG981BUrKy0mwEUMwh0cESNK+cFVJeXiR8RDO19p4ea+Nlz+tjZf32nh5r42X99p4eauNP1KmR228vNfGy3ttvLzXxst/psh/+1GR/yHj/9eL/H2W8flBxG9BpDqI9KhOwftvFJGJb63qyMavLOORk1VF/pWmqvx2ItFVxmvjhltrPq5IyjJ+3omooOLMxuvlKi4y3qk5qAhPIjcZv2fjEQHw/Xsk8uP9/mUixdNTD6IismAgqdEFJrJUAbq6y3gZZrrQ03AnQsOMIczkkPGyp5jHzM9sfBiRNOR6GfXIjAb7j4oIyXiNBP8h4400Jd2uKpnwsA8oiXx2dyJeO1sNrxpgGe88V6vgNQVMJH5MBHF0lvF2PukFv9eIiQQZtfJ6BJbxTe5bfu7uRET38JVTpmR897ZYPb+5iIl074sV8s5MxG8bfeSaf7YV+hOyjO/zRp9bZyci+0enj/lr2Ruv9dCW9vGceKrdoKMJ5hNP4njF0ws6SBnJc2cPERNNptRqMOyR0M8f/DIOGsvv8An3cyLImXwXJ9OYnleoj89d1XeADiAn9nktRjw+HglDeLsEn4+kOXkIaaIPeGmbEgPGDYoPrab2PdS+h/JH0Pop5J0NSzeVjue/GvoBVesL3lo/t8/tc/sTW9wUKiDQbGOH/OAaHAFcIHwEr2nUqgHD3qFaLqDxTvYBTXzIE1oeJqSgaDyG+gnFD6CDhIsWNGcr/3zRKN/C4diJoBK9cXw+7F7aZup9Cj6yMjZDLhxFdlZB9KpHBOBWBDkv02e2kG4CyK0o2XWTLOOxk1fRii5pW4akG+mwS9m2EdcsjaRw5JK1bcVLKgZqlUWWZQz1CLYCQ7ZPIBFo56yNFIStELZZC+cWc/0ZWOH9nYgAzP4rqoPWRAUEZvgFtsJUegK+uRnCZSC5YWljRgpk+gpbYa5NOVSGsKZveJvTkJraRqosnpWtsJnGtll4n1JpoRRB0yuaqQlWOtYUanq0oRaVFy/Us1RvL6x/4zV4q+TXDgY1oiMzmyQpYX6B0h4d2U86vQRfqxUSFQEQy+RJfcMyXzcqKIooYSugHgcRwNwmWK2ACa4jMTPkCTKNHEw9PG3MK1QH4X0vTe7pA517U73+pahsfStzkmVuy4IkturkWZ22gqUlGbsMFABSVGp6Vfk8bYVM2lWSn6sVaiOoqsdhK5BIC8r67fTZ9wig1zoXlQ+sN+HzN8FttQLBa208AoLLaoXGRcGAp1YrdFZjX2yFzmy812qFzNUK72oryMXmEo4nF9XYcWOr3C9n42PAI8zz3+FqcO6XbYVIdwrnX69WkPcif0QAPynyF9cif/lvFPnfbQUPFtGlyB+6+e+uVuj/k6sV7L+wWsHgW+vZ70R0dPoPVyvY99UKzn21gvdhtcL7nlvYiSQ/Xa3w/LBagW0F/QgqiBcd8VytAJNj5PcCXYpqao4AjtUKWk3Bmkrkg8glAlCrFVZ1/+62QsW2gnNUB8HFK9pjtYIJW2HhNV0gEsDSXXn5ANsKCWwFJO2ZiJsgL5GdqxVyevbD8xWxfE7W1DxtBepBzcsHLkT8togHfpkoiFD3C2/gRP5hK3hDpu9EtLV17ZrfHrrbCq6NEXWvDlpL107YiGZbYQBEAT8T0ZLa7tpZ7kSsmmCGIFbi2dfT2uvw5lOKjiJeGOd1/OAyEbMC7I/VCs5jjQuOna5E9Pl5aHyUxyIgqDiRzyczngGxH6JC4W2PR20r6GEyfTwZSl6/5aXPR8qtIVbC2+ljh+wjdNHjqRYvzMgAdBVBXumwEpRdQhABjzkgP3hCYxh3yG9b0lKOjrKHSuoJXqm+b5ppGkpm8Me/huIGtR9DcYMcwxgvKO9Q/G1ofNoKn9s/sVlsHHiBrbwAU79D6wZ18wadO9T5AbWDPdtv7dBTEb1uXKFw7pCdAuvc+QPUb1DTtR1eYnZOpmlL+8xHdjd42LhAGjJJzxEEX6f0D4hWTr1qDNFn5GmRNnnmXNJjQ+GYU/5sGXKGylxPCBkJqExYFor6kD953TLX4ZA0fh6QsygMeUiFCeoxPHnEA9sKWai5SFV5A4Rz/Ow1F4ksb1C2gq91GLndim2FliBsBbdStkIvG2T83AS2QtMWssi5sl3ZCgRJi9AuX9lWaFBlgncW4a1HzaOT/hMuQ65sBVebEizMfrKtAFh6hwcRkuacaKA3lnfOa7WBNj2PvJZXt+/1rjfngU5i9g5184ak6CwJvnGm0cFcqrltqWwFmzWAm2Vfd1vB2Abplu1X+AiZxZnGrsxgK4SwFSofTgHbCpmyFZZnCR9hohnHZFuhBC86Bv+7DEubfeuUznDZVmhpcjdSthUaMbXtYSu8Mo3e4ipbweDcL+CZ+00Mewk4ib3nfu3eveR+9cDvrraCu3Q3W2HprrZCs3RXW4Hgy1aYjWa52gqyKW62AsEj9+sloViav2EryL9sK2x/ylaQ/2FbIf6btsI/9u4g/2F8byskP7cV9NNW0K+2wnFrHUT2W+uwFYa7rTD/wFZA35rz1rrbCt7FVrjdWhdbQX6wFbaLrRDvwlnZCvvDvhNRD/v2shWsm62Ah51DGrYVwozCPn7/NBOZInrYX7YCgorgZSvww/7RVih2IuaW7onxKxGvXY3uybYCrw94TEb3WA5bwXvvjeZqK4TmxVZws9C42QqLsfDyb7YV6HsGh4KHrVBoqkSfiTTvhdG/bIW+7cyZF6mxrRASXMvTVghzgm0sDlvh6Zrz1VZQE2JOSpl1NNwlCaeAoRZhQuzbx3NlWyFnnz3foccTIsGcnXSG5vR85FwsxLGluT732iEuRaMZcIf4F224NffPGdDZno+seE2IDNlWUD77YzcdFsRO3gYP4jWzSxYSmkkKMOQAAAOASURBVOPFxg+gsMxbK0uFCzS/h0bsxdoPoOZoCjp/DM3Y0+UFegfUb9C4w8/tc/vc/sR2VhJpLPVfUFUSvSA+YtdVEYDa+QXtGzTwIWO3U9BE8l96navq2E08x4DKKbDurRZG2wvkoiu721crqNjJPmuwXg+7s+W5qiRaMs6TEOQIYIncHarCooiXJOctZ7mEj50DhtyKVFNQ5S0nZDTU1dBMlucK8krSosxzLqUk0bJDXmSl4Z8tkARbzoFZ0ASyyPKW8zNsOQPmOxx5MthfPWGlL1uhL22JCMDw32ArTElAELWhb8pWsLWwVYVFAV5VqBtDqQmj/4K8FlyGDVNz/xW2wlhbBpb/6euvsBXSVCdpYgln/VZawixnI4bGIghbgeZwgkhHwWVw0lFzErzSc2NbgeR8zNXLG9sK5arFFDAJe9uLrqQLNWCnv79sBbxfJGBbIYPlEe22Qti2uasKi1yKAFBYFCjVBlthzLEzlyXDVpjzksIZM2dbIdZHOp0vW8EasifbCpiaI8dMy8dpK2SWFrVPZBrpOtOJNrwoe+y2guwzCoe46CpAHjasDTsq3wcoYWUr2En15XtboemutoIsOpXEnpStQPBMYr8VHBDAVuDcb2MUzc1WKFxlKzTKViiCm62wBDdbwXdV7jdQtgKFQxdbATVYF1vBK+yrrRAv3g9sBfn3bQX5b9kK4p+xFf6jL0H6t22F9mUr8K11sxXsl62w31qnraBuLXG1FR53WyF7EeFb6+e2gvOXbIX5KCw6bQX3YitsV1vBwUKHq62A1y/jnUhMxESUwQ/ibisQXKqbrTBVjjhshUJFLrutUHIFlHHYCk88++crYvlaT6etwEVX39kKXEn0shXCs7CIbQWKAGgQcsRhK2RBnEanrbBmdozXyu22AgUScbSdtsKW2F41HLaCkaSxm11sBYLlLHYieopWxLRMxKo3h982sNsKyaa7HBkwkVfR1ZWIMxyFRWwcxMNjLyzCK/WEN9wKi+AUsBtO0EMC7vGsUEAg2Wgl+Ki5nmCqDEyXgNiZfYQmeTzYHOe7AqsjHlxYLPH+PcDnhhPGcR9DriQ2sSJMNtnjwflBDW/Y4yorDodE+ZoQSdo71q106A8gf5i6o3KjB9QvUJ7Q4Nc0nTsbJrc6uopwTIbWAY0blCZ/9w/gUXTl6JcarM/tc/vc/tX2/wAp8gw2W6OoAQAAAABJRU5ErkJggg==;" vertex="1" parent="1">
          <mxGeometry x="440" y="727.87" width="140" height="109.9" as="geometry" />
        </mxCell>
      </root>
    </mxGraphModel>
  </diagram>
</mxfile>
